<svg width="400" height="400" viewBox="0 0 400 400" xmlns="http://www.w3.org/2000/svg">
  <g fill="none" stroke="#94a3b8" stroke-width="2" stroke-linecap="round" stroke-linejoin="round" opacity="0.15">
    <!-- Book 1 -->
    <g transform="translate(60, 60) rotate(-15) scale(1.6)">
      <path d="M2 3h6a4 4 0 0 1 4 4v14a3 3 0 0 0-3-3H2z"/><path d="M22 3h-6a4 4 0 0 0-4 4v14a3 3 0 0 1 3-3h7z"/>
    </g>
    <!-- Book 2 -->
    <g transform="translate(280, 100) rotate(22) scale(1.3)">
      <path d="M2 3h6a4 4 0 0 1 4 4v14a3 3 0 0 0-3-3H2z"/><path d="M22 3h-6a4 4 0 0 0-4 4v14a3 3 0 0 1 3-3h7z"/>
    </g>
    <!-- Book 3 -->
    <g transform="translate(130, 260) rotate(-8) scale(1.4)">
      <path d="M2 3h6a4 4 0 0 1 4 4v14a3 3 0 0 0-3-3H2z"/><path d="M22 3h-6a4 4 0 0 0-4 4v14a3 3 0 0 1 3-3h7z"/>
    </g>
    <!-- Book 4 -->
    <g transform="translate(320, 310) rotate(12) scale(1.7)">
      <path d="M2 3h6a4 4 0 0 1 4 4v14a3 3 0 0 0-3-3H2z"/><path d="M22 3h-6a4 4 0 0 0-4 4v14a3 3 0 0 1 3-3h7z"/>
    </g>
  </g>

  <!-- Scattered Dots -->
  <g fill="#94a3b8" opacity="0.2">
    <circle cx="150" cy="80" r="2.5" />
    <circle cx="320" cy="40" r="1.5" />
    <circle cx="80" cy="200" r="3" />
    <circle cx="240" cy="180" r="2" />
    <circle cx="360" cy="210" r="2.5" />
    <circle cx="60" cy="340" r="1.5" />
    <circle cx="220" cy="360" r="3" />
    <circle cx="180" cy="140" r="1" />
    <circle cx="40" cy="120" r="2" />
    <circle cx="280" cy="280" r="1.5" />
  </g>
</svg>
